<?xml version="1.0"?>
<svg xmlns="http://www.w3.org/2000/svg" xmlns:xlink="http://www.w3.org/1999/xlink" xmlns:svgjs="http://svgjs.com/svgjs" version="1.1" width="512" height="512" x="0" y="0" viewBox="0 0 24 24" style="enable-background:new 0 0 512 512" xml:space="preserve" class=""><g><circle xmlns="http://www.w3.org/2000/svg" cx="11" cy="12" fill="#60c048" r="10.25" data-original="#ffc107" style="" class=""/><path xmlns="http://www.w3.org/2000/svg" d="m22.25 12.75h-14.5c-.414 0-.75-.336-.75-.75s.336-.75.75-.75h14.5c.414 0 .75.336.75.75s-.336.75-.75.75z" fill="#000000" data-original="#000000" style="" class=""/><path xmlns="http://www.w3.org/2000/svg" d="m11.75 16.75c-.192 0-.384-.073-.53-.22l-4-4c-.293-.293-.293-.768 0-1.061l4-4c.293-.293.768-.293 1.061 0s.293.768 0 1.061l-3.47 3.47 3.47 3.47c.293.293.293.768 0 1.061-.147.146-.339.219-.531.219z" fill="#000000" data-original="#000000" style="" class=""/><path xmlns="http://www.w3.org/2000/svg" d="m11 23c-6.065 0-11-4.935-11-11s4.935-11 11-11c4.551 0 8.569 2.738 10.238 6.976.152.385-.038.82-.423.973-.385.15-.82-.037-.973-.424-1.441-3.66-4.912-6.025-8.842-6.025-5.238 0-9.5 4.262-9.5 9.5s4.262 9.5 9.5 9.5c3.93 0 7.401-2.365 8.842-6.024.152-.387.587-.574.973-.424.385.152.575.588.423.973-1.669 4.237-5.687 6.975-10.238 6.975z" fill="#000000" data-original="#000000" style="" class=""/></g></svg>
